<svg width="15" height="15" viewBox="0 0 15 15" fill="none" xmlns="http://www.w3.org/2000/svg">
<path d="M4.96217 13.4657C4.78642 13.2899 4.68769 13.0515 4.68769 12.8029C4.68769 12.5543 4.78642 12.3159 4.96217 12.1401L9.6028 7.4995L4.96217 2.85887C4.7914 2.68206 4.69691 2.44524 4.69904 2.19943C4.70118 1.95362 4.79977 1.71849 4.97359 1.54467C5.14741 1.37085 5.38255 1.27225 5.62836 1.27011C5.87417 1.26798 6.11098 1.36247 6.2878 1.53325L11.5912 6.83668C11.767 7.01249 11.8657 7.25091 11.8657 7.4995C11.8657 7.74809 11.767 7.9865 11.5912 8.16231L6.2878 13.4657C6.11199 13.6415 5.87358 13.7402 5.62499 13.7402C5.37639 13.7402 5.13798 13.6415 4.96217 13.4657Z" fill="#111111"/>
</svg>
