<svg width="15" height="15" viewBox="0 0 15 15" fill="none" xmlns="http://www.w3.org/2000/svg">
<path d="M10.0378 1.53425C10.2136 1.71006 10.3123 1.94847 10.3123 2.19707C10.3123 2.44566 10.2136 2.68407 10.0378 2.85988L5.3972 7.5005L10.0378 12.1411C10.2086 12.3179 10.3031 12.5548 10.301 12.8006C10.2988 13.0464 10.2002 13.2815 10.0264 13.4553C9.85259 13.6292 9.61745 13.7277 9.37164 13.7299C9.12583 13.732 8.88902 13.6375 8.7122 13.4668L3.40876 8.16332C3.23301 7.98751 3.13428 7.74909 3.13428 7.5005C3.13428 7.25191 3.23301 7.0135 3.40876 6.83769L8.7122 1.53425C8.88801 1.3585 9.12642 1.25977 9.37501 1.25977C9.62361 1.25977 9.86202 1.3585 10.0378 1.53425Z" fill="#111111"/>
</svg>
