<svg width="20" height="20" viewBox="0 0 20 20" fill="none" xmlns="http://www.w3.org/2000/svg">
<path d="M9.99984 11.166L12.4165 13.5827C12.5693 13.7355 12.7637 13.8119 12.9998 13.8119C13.2359 13.8119 13.4304 13.7355 13.5832 13.5827C13.7359 13.4299 13.8123 13.2355 13.8123 12.9993C13.8123 12.7632 13.7359 12.5688 13.5832 12.416L11.1665 9.99935L13.5832 7.58268C13.7359 7.42991 13.8123 7.23546 13.8123 6.99935C13.8123 6.76324 13.7359 6.56879 13.5832 6.41602C13.4304 6.26324 13.2359 6.18685 12.9998 6.18685C12.7637 6.18685 12.5693 6.26324 12.4165 6.41602L9.99984 8.83268L7.58317 6.41602C7.43039 6.26324 7.23595 6.18685 6.99984 6.18685C6.76373 6.18685 6.56928 6.26324 6.4165 6.41602C6.26373 6.56879 6.18734 6.76324 6.18734 6.99935C6.18734 7.23546 6.26373 7.42991 6.4165 7.58268L8.83317 9.99935L6.4165 12.416C6.26373 12.5688 6.18734 12.7632 6.18734 12.9993C6.18734 13.2355 6.26373 13.4299 6.4165 13.5827C6.56928 13.7355 6.76373 13.8119 6.99984 13.8119C7.23595 13.8119 7.43039 13.7355 7.58317 13.5827L9.99984 11.166ZM9.99984 18.3327C8.84706 18.3327 7.76373 18.1138 6.74984 17.676C5.73595 17.2382 4.854 16.6446 4.10401 15.8952C3.35401 15.1457 2.76039 14.2638 2.32317 13.2493C1.88595 12.2349 1.66706 11.1516 1.6665 9.99935C1.66595 8.84713 1.88484 7.76379 2.32317 6.74935C2.76151 5.73491 3.35512 4.85296 4.10401 4.10352C4.85289 3.35407 5.73484 2.76046 6.74984 2.32268C7.76484 1.8849 8.84817 1.66602 9.99984 1.66602C11.1515 1.66602 12.2348 1.8849 13.2498 2.32268C14.2648 2.76046 15.1468 3.35407 15.8957 4.10352C16.6446 4.85296 17.2384 5.73491 17.6773 6.74935C18.1162 7.76379 18.3348 8.84713 18.3332 9.99935C18.3315 11.1516 18.1126 12.2349 17.6765 13.2493C17.2404 14.2638 16.6468 15.1457 15.8957 15.8952C15.1446 16.6446 14.2626 17.2385 13.2498 17.6768C12.2371 18.1152 11.1537 18.3338 9.99984 18.3327Z" fill="#767676"/>
</svg>
