<svg width="10" height="10" viewBox="0 0 10 10" fill="none" xmlns="http://www.w3.org/2000/svg">
<path d="M5.83314 5V8.28333C5.84981 8.40833 5.80814 8.54167 5.71231 8.62917C5.67376 8.66779 5.62798 8.69844 5.57757 8.71935C5.52716 8.74025 5.47313 8.75102 5.41856 8.75102C5.36399 8.75102 5.30996 8.74025 5.25955 8.71935C5.20914 8.69844 5.16336 8.66779 5.12481 8.62917L4.28731 7.79167C4.24189 7.74722 4.20736 7.69289 4.1864 7.6329C4.16544 7.57291 4.15862 7.50889 4.16648 7.44583V5H4.15398L1.75398 1.925C1.68631 1.83814 1.65578 1.72802 1.66906 1.61872C1.68233 1.50942 1.73833 1.40981 1.82481 1.34167C1.90398 1.28333 1.99148 1.25 2.08314 1.25H7.91648C8.00814 1.25 8.09564 1.28333 8.17481 1.34167C8.2613 1.40981 8.31729 1.50942 8.33057 1.61872C8.34384 1.72802 8.31331 1.83814 8.24564 1.925L5.84564 5H5.83314Z" fill="#505050"/>
</svg>
