<svg width="24" height="24" viewBox="0 0 24 24" fill="none" xmlns="http://www.w3.org/2000/svg">
<path fill-rule="evenodd" clip-rule="evenodd" d="M10.9262 4.68377L4.92625 8.50195C4.34935 8.86907 4 9.50548 4 10.1893V18.0005C4 19.105 4.89543 20.0005 6 20.0005H18C19.1046 20.0005 20 19.105 20 18.0005V10.1893C20 9.50548 19.6506 8.86907 19.0738 8.50195L13.0738 4.68377C12.4186 4.26687 11.5814 4.26687 10.9262 4.68377ZM9.5 13C8.67157 13 8 13.6716 8 14.5C8 15.3284 8.67157 16 9.5 16H14.5C15.3284 16 16 15.3284 16 14.5C16 13.6716 15.3284 13 14.5 13H9.5Z" fill="#767676"/>
<path d="M4.92625 8.50195L5.32891 9.1347L5.32891 9.1347L4.92625 8.50195ZM10.9262 4.68377L10.5236 4.05102L10.5236 4.05102L10.9262 4.68377ZM19.0738 8.50195L19.4764 7.86921L19.4764 7.86921L19.0738 8.50195ZM13.0738 4.68377L13.4764 4.05102L13.4764 4.05102L13.0738 4.68377ZM5.32891 9.1347L11.3289 5.31652L10.5236 4.05102L4.52359 7.86921L5.32891 9.1347ZM4.75 10.1893C4.75 9.7619 4.96835 9.36415 5.32891 9.1347L4.52359 7.86921C3.73036 8.37399 3.25 9.24905 3.25 10.1893H4.75ZM4.75 18.0005V10.1893H3.25V18.0005H4.75ZM6 19.2505C5.30964 19.2505 4.75 18.6908 4.75 18.0005H3.25C3.25 19.5193 4.48122 20.7505 6 20.7505V19.2505ZM18 19.2505H6V20.7505H18V19.2505ZM19.25 18.0005C19.25 18.6908 18.6904 19.2505 18 19.2505V20.7505C19.5188 20.7505 20.75 19.5193 20.75 18.0005H19.25ZM19.25 10.1893V18.0005H20.75V10.1893H19.25ZM18.6711 9.1347C19.0317 9.36415 19.25 9.7619 19.25 10.1893H20.75C20.75 9.24905 20.2696 8.37399 19.4764 7.86921L18.6711 9.1347ZM12.6711 5.31652L18.6711 9.1347L19.4764 7.86921L13.4764 4.05102L12.6711 5.31652ZM11.3289 5.31652C11.7384 5.05595 12.2616 5.05595 12.6711 5.31652L13.4764 4.05102C12.5756 3.47778 11.4244 3.47778 10.5236 4.05102L11.3289 5.31652ZM8.75 14.5C8.75 14.0858 9.08579 13.75 9.5 13.75V12.25C8.25736 12.25 7.25 13.2574 7.25 14.5H8.75ZM9.5 15.25C9.08579 15.25 8.75 14.9142 8.75 14.5H7.25C7.25 15.7426 8.25736 16.75 9.5 16.75V15.25ZM14.5 15.25H9.5V16.75H14.5V15.25ZM15.25 14.5C15.25 14.9142 14.9142 15.25 14.5 15.25V16.75C15.7426 16.75 16.75 15.7426 16.75 14.5H15.25ZM14.5 13.75C14.9142 13.75 15.25 14.0858 15.25 14.5H16.75C16.75 13.2574 15.7426 12.25 14.5 12.25V13.75ZM9.5 13.75H14.5V12.25H9.5V13.75Z" fill="#767676"/>
</svg>
