<svg width="16" height="16" viewBox="0 0 16 16" fill="none" xmlns="http://www.w3.org/2000/svg">
<path fill-rule="evenodd" clip-rule="evenodd" d="M5.23355 13.1828L8.00022 11.5161L10.7669 13.1828C10.8891 13.261 11.0169 13.2944 11.1502 13.2828C11.2836 13.2713 11.4002 13.2268 11.5002 13.1495C11.6002 13.0721 11.678 12.975 11.7336 12.8581C11.7891 12.7413 11.8002 12.6106 11.7669 12.4661L11.0336 9.31615L13.4836 7.19948C13.5951 7.09992 13.6647 6.98615 13.6922 6.85815C13.7198 6.73015 13.7113 6.60504 13.6669 6.48281C13.6224 6.36059 13.5558 6.26059 13.4669 6.18281C13.378 6.10503 13.2558 6.05504 13.1002 6.03281L9.86689 5.74948L8.61689 2.78281C8.56133 2.64948 8.47511 2.54948 8.35822 2.48281C8.24133 2.41615 8.122 2.38281 8.00022 2.38281C7.87844 2.38281 7.75911 2.41615 7.64222 2.48281C7.52533 2.54948 7.43911 2.64948 7.38355 2.78281L6.13355 5.74948L2.90022 6.03281C2.74511 6.05459 2.62289 6.10459 2.53355 6.18281C2.44422 6.26103 2.37755 6.36104 2.33355 6.48281C2.28955 6.60459 2.28133 6.72948 2.30889 6.85748C2.33644 6.98548 2.40577 7.09948 2.51689 7.19948L4.96689 9.31615L4.23355 12.4661C4.20022 12.611 4.21133 12.7417 4.26689 12.8581C4.32244 12.9746 4.40022 13.0717 4.50022 13.1495C4.60022 13.2273 4.71689 13.2717 4.85022 13.2828C4.98355 13.2939 5.11133 13.2606 5.23355 13.1828ZM8.50024 5.99951C8.50024 5.72337 8.27639 5.49951 8.00024 5.49951C7.7241 5.49951 7.50024 5.72337 7.50024 5.99951V7.49951H6.00024C5.7241 7.49951 5.50024 7.72337 5.50024 7.99951C5.50024 8.27565 5.7241 8.49951 6.00024 8.49951H7.50024V9.99951C7.50024 10.2757 7.7241 10.4995 8.00024 10.4995C8.27639 10.4995 8.50024 10.2757 8.50024 9.99951V8.49951H10.0002C10.2764 8.49951 10.5002 8.27565 10.5002 7.99951C10.5002 7.72337 10.2764 7.49951 10.0002 7.49951H8.50024V5.99951Z" fill="#505050"/>
</svg>
