<svg width="10" height="10" viewBox="0 0 10 10" fill="none" xmlns="http://www.w3.org/2000/svg">
<path d="M7.526 6.67969C7.78225 6.86969 7.91683 7.0851 7.91683 7.30469C7.91683 7.52427 7.78225 7.73969 7.526 7.92969C7.27016 8.11969 6.90183 8.2776 6.4585 8.38719C6.01516 8.49677 5.51225 8.55469 5.00016 8.55469C4.48808 8.55469 3.98516 8.49677 3.54183 8.38719C3.0985 8.2776 2.73016 8.11969 2.47433 7.92969C2.21808 7.73969 2.0835 7.52427 2.0835 7.30469C2.0835 7.0851 2.21808 6.86969 2.47433 6.67969" stroke="white" stroke-linecap="round"/>
<path d="M5.10449 4.43945C4.89729 4.43945 4.69858 4.35714 4.55206 4.21063C4.40555 4.06412 4.32324 3.8654 4.32324 3.6582C4.32324 3.451 4.40555 3.25229 4.55206 3.10578C4.69858 2.95926 4.89729 2.87695 5.10449 2.87695C5.31169 2.87695 5.51041 2.95926 5.65692 3.10578C5.80343 3.25229 5.88574 3.451 5.88574 3.6582C5.88574 3.7608 5.86553 3.86239 5.82627 3.95717C5.78701 4.05196 5.72946 4.13808 5.65692 4.21063C5.58437 4.28318 5.49825 4.34072 5.40346 4.37998C5.30868 4.41924 5.20709 4.43945 5.10449 4.43945ZM5.10449 1.4707C4.52433 1.4707 3.96793 1.70117 3.5577 2.11141C3.14746 2.52164 2.91699 3.07804 2.91699 3.6582C2.91699 4.51522 3.5139 5.58541 4.0841 6.41221C4.58857 7.14372 5.62041 7.14372 6.12489 6.41221C6.69509 5.58541 7.29199 4.51522 7.29199 3.6582C7.29199 3.07804 7.06152 2.52164 6.65129 2.11141C6.24105 1.70117 5.68465 1.4707 5.10449 1.4707Z" fill="white"/>
</svg>
